<svg viewBox="0 0 1 1" style="background-color:black" overflow="hidden" xmlns="http://www.w3.org/2000/svg">
  <circle cx="0.5965105891227722" cy="0.5086036324501038" r="0.155538409948349" fill="rgba(244, 115, 93, 0.19914473593235016)" />
  <circle cx="0.7258188724517822" cy="1.0" r="0.195437952876091" fill="rgba(156, 58, 129, 0.14826282858848572)" />
  <circle cx="0.2358865886926651" cy="0.040159329771995544" r="0.10912623256444931" fill="rgba(0, 199, 255, 0.412418931722641)" />
  <circle cx="0.0059867543168365955" cy="0.8048710823059082" r="0.0156819149851799" fill="rgba(195, 93, 0, 0.37059345841407776)" />
  <circle cx="0.8824326395988464" cy="0.10156434774398804" r="0.15587714314460754" fill="rgba(181, 193, 102, 0.7300501465797424)" />
  <circle cx="0.981497049331665" cy="0.3661942780017853" r="0.08801290392875671" fill="rgba(255, 254, 255, 1.0)" />
  <circle cx="0.4187312424182892" cy="0.31971970200538635" r="0.053476329892873764" fill="rgba(161, 194, 34, 0.25056910514831543)" />
  <circle cx="0.15818607807159424" cy="0.11570445448160172" r="0.05820833519101143" fill="rgba(89, 101, 121, 0.5690297484397888)" />
  <circle cx="0.5297219157218933" cy="0.9919916391372681" r="0.09850835800170898" fill="rgba(244, 246, 212, 0.9162007570266724)" />
  <circle cx="0.4212198555469513" cy="0.541330873966217" r="0.11742778867483139" fill="rgba(255, 247, 156, 1.0)" />
  <circle cx="0.01449543982744217" cy="0.8542158007621765" r="0.022242305800318718" fill="rgba(141, 212, 254, 0.8159210085868835)" />
  <circle cx="0.5913313627243042" cy="0.9560263156890869" r="0.08067174255847931" fill="rgba(255, 254, 203, 0.4638981819152832)" />
  <circle cx="0.8633527159690857" cy="0.09324081987142563" r="0.08232241123914719" fill="rgba(63, 76, 176, 0.3679926097393036)" />
  <circle cx="0.038505323231220245" cy="0.8551539778709412" r="0.05430717021226883" fill="rgba(141, 187, 226, 0.29510900378227234)" />
  <circle cx="0.43927663564682007" cy="0.8313510417938232" r="0.016648419201374054" fill="rgba(224, 188, 46, 0.5009858012199402)" />
  <circle cx="0.40882202982902527" cy="0.37078481912612915" r="0.05487019941210747" fill="rgba(93, 96, 157, 0.7074204087257385)" />
  <circle cx="0.3567862808704376" cy="0.5250919461250305" r="0.08208287507295609" fill="rgba(192, 177, 80, 1.0)" />
  <circle cx="0.034696828573942184" cy="0.3178785741329193" r="0.15970364212989807" fill="rgba(170, 214, 150, 0.9359115362167358)" />
  <circle cx="0.21034757792949677" cy="0.023699671030044556" r="0.09305508434772491" fill="rgba(63, 204, 85, 0.4935796558856964)" />
  <circle cx="0.8173462152481079" cy="0.06677526980638504" r="0.07699134200811386" fill="rgba(252, 70, 0, 0.33369705080986023)" />
  <circle cx="0.35825207829475403" cy="1.0" r="0.03480612486600876" fill="rgba(207, 235, 138, 0.8535232543945312)" />
  <circle cx="0.10037494450807571" cy="0.33883342146873474" r="0.061124324798583984" fill="rgba(57, 83, 57, 0.3268882632255554)" />
  <circle cx="6.884070444357349e-06" cy="0.3289847671985626" r="0.13152429461479187" fill="rgba(143, 251, 189, 0.2636313736438751)" />
  <circle cx="0.9024069309234619" cy="0.12581244111061096" r="0.048744164407253265" fill="rgba(153, 164, 133, 0.23868770897388458)" />
  <circle cx="0.09617394208908081" cy="0.15817958116531372" r="0.0064167445525527" fill="rgba(78, 169, 3, 0.10836130380630493)" />
  <circle cx="0.4672713577747345" cy="0.294356107711792" r="0.033363327383995056" fill="rgba(255, 100, 137, 0.1409270316362381)" />
  <circle cx="0.10058645159006119" cy="0.2375112771987915" r="0.04459100589156151" fill="rgba(130, 140, 116, 0.3079608976840973)" />
  <circle cx="0.5776970982551575" cy="0.5103067755699158" r="0.03660694882273674" fill="rgba(209, 173, 71, 0.798568069934845)" />
  <circle cx="0.4389699399471283" cy="0.604638934135437" r="0.15559789538383484" fill="rgba(255, 225, 105, 0.24757055938243866)" />
  <circle cx="0.6030007600784302" cy="0.0017474257620051503" r="0.08743172883987427" fill="rgba(144, 189, 105, 0.7477632761001587)" />
  <circle cx="0.3296767473220825" cy="8.100916602415964e-05" r="0.07442880421876907" fill="rgba(224, 88, 54, 0.3058905005455017)" />
  <circle cx="0.3912356197834015" cy="0.28068220615386963" r="0.05563069134950638" fill="rgba(248, 237, 194, 0.9439654350280762)" />
  <circle cx="0.35734498500823975" cy="0.10142407566308975" r="0.08723220974206924" fill="rgba(60, 32, 9, 0.3605000376701355)" />
  <circle cx="0.6458539962768555" cy="0.8999063968658447" r="0.10718045383691788" fill="rgba(117, 42, 0, 0.31309372186660767)" />
  <circle cx="0.492398202419281" cy="0.6805037260055542" r="0.016212446615099907" fill="rgba(255, 255, 148, 1.0)" />
  <circle cx="0.746488630771637" cy="0.10475144535303116" r="0.033684976398944855" fill="rgba(2, 52, 195, 0.4292040169239044)" />
  <circle cx="0.970463752746582" cy="0.1428198218345642" r="0.129150390625" fill="rgba(69, 22, 39, 0.7079808712005615)" />
  <circle cx="0.4630005359649658" cy="1.0" r="0.12796318531036377" fill="rgba(255, 208, 51, 0.12574635446071625)" />
  <circle cx="0.9676383137702942" cy="0.2819749712944031" r="0.08927778154611588" fill="rgba(214, 240, 129, 0.4499526023864746)" />
  <circle cx="0.0" cy="0.5252309441566467" r="0.12262332439422607" fill="rgba(255, 176, 0, 1.0)" />
  <circle cx="0.3977932631969452" cy="0.5225067734718323" r="0.07348964363336563" fill="rgba(0, 0, 0, 1.0)" />
  <circle cx="0.4287371337413788" cy="0.5865299701690674" r="0.024046044796705246" fill="rgba(133, 217, 128, 0.021082520484924316)" />
  <circle cx="0.3581923246383667" cy="0.9520369172096252" r="0.030396750196814537" fill="rgba(49, 42, 5, 0.4309828579425812)" />
  <circle cx="0.4398573040962219" cy="0.30875611305236816" r="0.12200773507356644" fill="rgba(232, 243, 109, 0.5180632472038269)" />
  <circle cx="0.3957376182079315" cy="0.0026025904808193445" r="0.04512769356369972" fill="rgba(183, 169, 97, 0.7345533967018127)" />
  <circle cx="0.9714437127113342" cy="0.6129472851753235" r="0.26351198554039" fill="rgba(87, 51, 56, 0.28070682287216187)" />
  <circle cx="0.37349772453308105" cy="0.5670487880706787" r="0.07498101145029068" fill="rgba(203, 198, 132, 0.6907209753990173)" />
  <circle cx="0.8289713263511658" cy="0.08137720823287964" r="0.07061722874641418" fill="rgba(111, 154, 0, 0.20598618686199188)" />
  <circle cx="0.575106680393219" cy="0.37232765555381775" r="0.13992828130722046" fill="rgba(209, 140, 60, 0.14571283757686615)" />
  <circle cx="0.019040388986468315" cy="0.5343780517578125" r="0.023543639108538628" fill="rgba(119, 79, 150, 0.07266580313444138)" />
  <circle cx="0.8876056671142578" cy="0.6691011786460876" r="0.1858588606119156" fill="rgba(86, 93, 115, 0.1911684274673462)" />
  <circle cx="0.008218635804951191" cy="0.1437138020992279" r="0.16731803119182587" fill="rgba(115, 196, 4, 0.4213213324546814)" />
  <circle cx="0.9895485639572144" cy="0.9562596082687378" r="0.047063011676073074" fill="rgba(140, 129, 91, 0.3699742555618286)" />
  <circle cx="0.9556494951248169" cy="0.15236368775367737" r="0.0950625017285347" fill="rgba(248, 235, 91, 0.29461392760276794)" />
  <circle cx="0.9106451272964478" cy="0.14399811625480652" r="0.051220059394836426" fill="rgba(116, 69, 2, 0.4830963611602783)" />
  <circle cx="0.9872780442237854" cy="0.3592648208141327" r="0.09268518537282944" fill="rgba(255, 254, 254, 0.739334225654602)" />
  <circle cx="0.5707079768180847" cy="0.5718492865562439" r="0.0735301524400711" fill="rgba(189, 130, 56, 0.18419133126735687)" />
  <circle cx="0.9975403547286987" cy="0.002269958844408393" r="0.16382211446762085" fill="rgba(77, 121, 51, 0.41865676641464233)" />
  <circle cx="0.4448559284210205" cy="0.41148197650909424" r="0.10292873531579971" fill="rgba(61, 22, 14, 0.9491832852363586)" />
  <circle cx="0.498196005821228" cy="0.27974602580070496" r="0.048111703246831894" fill="rgba(255, 255, 133, 1.0)" />
  <circle cx="0.41259264945983887" cy="0.5680444240570068" r="0.05861193686723709" fill="rgba(1, 0, 7, 1.0)" />
  <circle cx="0.3329119384288788" cy="0.2404165118932724" r="0.09054911881685257" fill="rgba(84, 26, 35, 0.21863609552383423)" />
  <circle cx="0.44523948431015015" cy="0.5931707620620728" r="0.15877601504325867" fill="rgba(255, 253, 93, 0.14490407705307007)" />
  <circle cx="0.5188623070716858" cy="0.9021108746528625" r="0.08424146473407745" fill="rgba(63, 52, 19, 0.6837537884712219)" />
  <circle cx="0.9294838309288025" cy="0.8527871966362" r="0.038732029497623444" fill="rgba(158, 196, 94, 0.47520241141319275)" />
  <circle cx="0.9455627799034119" cy="0.2473479062318802" r="0.06927499175071716" fill="rgba(209, 135, 77, 0.2564091980457306)" />
  <circle cx="0.11879956722259521" cy="0.11738067120313644" r="0.1448216587305069" fill="rgba(246, 232, 147, 0.6486160755157471)" />
  <circle cx="0.31558912992477417" cy="0.37631523609161377" r="0.02941131964325905" fill="rgba(161, 190, 244, 0.9467587471008301)" />
  <circle cx="0.8091346621513367" cy="0.09267939627170563" r="0.06174072250723839" fill="rgba(187, 151, 99, 0.5062252879142761)" />
  <circle cx="0.9851086735725403" cy="0.00041846203384920955" r="0.14256879687309265" fill="rgba(50, 67, 90, 0.31411609053611755)" />
  <circle cx="0.17016254365444183" cy="0.10633973777294159" r="0.14661383628845215" fill="rgba(173, 211, 173, 0.8036012053489685)" />
  <circle cx="0.8588048815727234" cy="0.5122711658477783" r="0.1919553279876709" fill="rgba(27, 18, 30, 0.6723213791847229)" />
  <circle cx="0.7580868005752563" cy="0.9340478777885437" r="0.08869818598031998" fill="rgba(230, 143, 41, 0.15685643255710602)" />
  <circle cx="0.9313234686851501" cy="0.34210291504859924" r="0.01927649788558483" fill="rgba(125, 56, 105, 0.007627175189554691)" />
  <circle cx="0.4921532869338989" cy="0.312862366437912" r="0.08796658366918564" fill="rgba(255, 255, 118, 0.292859822511673)" />
  <circle cx="0.9368330240249634" cy="0.2542908787727356" r="0.028799384832382202" fill="rgba(22, 26, 151, 0.6192945837974548)" />
  <circle cx="0.16988219320774078" cy="0.5611679553985596" r="0.06139238923788071" fill="rgba(137, 83, 61, 0.23653066158294678)" />
  <circle cx="0.5033496022224426" cy="0.0" r="0.0769873633980751" fill="rgba(191, 235, 137, 0.6672117710113525)" />
  <circle cx="0.5250638127326965" cy="0.6706664562225342" r="0.03044171817600727" fill="rgba(243, 226, 128, 0.6474525928497314)" />
  <circle cx="0.5841755270957947" cy="0.5212568640708923" r="0.07275398075580597" fill="rgba(255, 191, 64, 0.2342546433210373)" />
  <circle cx="0.6380713582038879" cy="0.8460643887519836" r="0.07107654213905334" fill="rgba(200, 136, 32, 0.27341437339782715)" />
  <circle cx="0.08855830878019333" cy="0.45225611329078674" r="0.09186127781867981" fill="rgba(225, 254, 187, 0.4550877511501312)" />
  <circle cx="0.3488224446773529" cy="0.2814699113368988" r="0.030230823904275894" fill="rgba(215, 203, 203, 0.5937930941581726)" />
  <circle cx="0.559938371181488" cy="0.3214302957057953" r="0.08395480364561081" fill="rgba(208, 181, 53, 0.457958847284317)" />
  <circle cx="0.3447151482105255" cy="0.5226972103118896" r="0.08150536566972733" fill="rgba(247, 228, 75, 0.37690848112106323)" />
  <circle cx="0.1175486221909523" cy="0.7789173722267151" r="0.0130452336743474" fill="rgba(255, 255, 228, 0.917003870010376)" />
  <circle cx="0.5188135504722595" cy="1.0" r="0.12720902264118195" fill="rgba(255, 223, 133, 0.31507807970046997)" />
  <circle cx="0.0" cy="0.33522969484329224" r="0.1650138646364212" fill="rgba(255, 255, 176, 1.0)" />
  <circle cx="0.19810941815376282" cy="0.1954101026058197" r="0.0051815202459692955" fill="rgba(98, 117, 135, 0.170193150639534)" />
  <circle cx="0.8765047192573547" cy="0.5254606604576111" r="0.02872592583298683" fill="rgba(186, 177, 126, 0.4727264642715454)" />
  <circle cx="0.6944235563278198" cy="0.7863431572914124" r="0.16911059617996216" fill="rgba(32, 18, 26, 0.7537763714790344)" />
  <circle cx="0.1162969097495079" cy="0.3036954700946808" r="0.040434472262859344" fill="rgba(12, 0, 39, 0.896133542060852)" />
  <circle cx="0.15538422763347626" cy="0.08278451859951019" r="0.06302027404308319" fill="rgba(47, 136, 163, 0.4518314301967621)" />
  <circle cx="0.5682511329650879" cy="0.3606376051902771" r="0.03486128896474838" fill="rgba(255, 228, 131, 0.5576077103614807)" />
  <circle cx="0.3156745433807373" cy="0.3482796251773834" r="0.014688555151224136" fill="rgba(3, 21, 199, 0.7327572703361511)" />
  <circle cx="0.5849911570549011" cy="0.16727818548679352" r="0.17766377329826355" fill="rgba(96, 37, 28, 0.27491942048072815)" />
  <circle cx="0.07330670207738876" cy="0.541194498538971" r="0.029223782941699028" fill="rgba(167, 4, 0, 0.4724791347980499)" />
  <circle cx="0.999788224697113" cy="0.3575449585914612" r="0.16911907494068146" fill="rgba(229, 253, 146, 0.4534234404563904)" />
  <circle cx="0.06777259707450867" cy="0.03953921049833298" r="0.14466926455497742" fill="rgba(141, 184, 123, 0.2545830309391022)" />
  <circle cx="0.9265277981758118" cy="0.3815215826034546" r="0.039416491985321045" fill="rgba(147, 150, 83, 0.55753093957901)" />
  <circle cx="0.2299051582813263" cy="0.37090742588043213" r="0.07326599955558777" fill="rgba(126, 62, 27, 0.2514839470386505)" />
  <circle cx="0.39564087986946106" cy="0.3736259639263153" r="0.04686805233359337" fill="rgba(188, 166, 162, 0.4672994017601013)" />
  <circle cx="0.9899795651435852" cy="0.4150230884552002" r="0.05530046671628952" fill="rgba(25, 170, 196, 0.42220059037208557)" />
  <circle cx="0.7954672574996948" cy="0.035316940397024155" r="0.06597091257572174" fill="rgba(197, 158, 73, 0.26159027218818665)" />
  <circle cx="0.4119057357311249" cy="0.45549771189689636" r="0.021884482353925705" fill="rgba(251, 233, 117, 0.9775229692459106)" />
  <circle cx="0.14306722581386566" cy="0.12363120168447495" r="0.09873171150684357" fill="rgba(143, 178, 51, 0.25079110264778137)" />
  <circle cx="0.001153073855675757" cy="0.354993999004364" r="0.1180986613035202" fill="rgba(0, 28, 72, 1.0)" />
  <circle cx="0.9851350784301758" cy="0.03413693234324455" r="0.15340417623519897" fill="rgba(102, 85, 20, 0.802850604057312)" />
  <circle cx="0.48663926124572754" cy="0.5549399852752686" r="0.0192214697599411" fill="rgba(143, 103, 40, 0.6352646350860596)" />
  <circle cx="0.6590471863746643" cy="0.0002839601947925985" r="0.10256722569465637" fill="rgba(135, 152, 80, 0.45234811305999756)" />
  <circle cx="0.6748966574668884" cy="0.0" r="0.05468197911977768" fill="rgba(0, 0, 0, 1.0)" />
  <circle cx="0.4405398666858673" cy="0.3022383749485016" r="0.08140752464532852" fill="rgba(252, 230, 155, 0.8122712969779968)" />
  <circle cx="0.483558714389801" cy="0.44533994793891907" r="0.024383921176195145" fill="rgba(255, 200, 102, 0.4386943280696869)" />
  <circle cx="0.4112634062767029" cy="0.20486263930797577" r="0.026378223672509193" fill="rgba(187, 214, 143, 0.40016576647758484)" />
  <circle cx="0.03339514508843422" cy="0.508279025554657" r="0.11727219820022583" fill="rgba(0, 0, 0, 0.6159636378288269)" />
  <circle cx="0.6538174152374268" cy="0.37132033705711365" r="0.1088680624961853" fill="rgba(62, 24, 26, 0.28713592886924744)" />
  <circle cx="0.9546893239021301" cy="0.6981099843978882" r="0.07850035279989243" fill="rgba(159, 179, 83, 0.3730485737323761)" />
  <circle cx="0.479108989238739" cy="0.33296021819114685" r="0.046654846519231796" fill="rgba(160, 146, 80, 0.5383673310279846)" />
  <circle cx="0.5414423942565918" cy="0.3576545715332031" r="0.04024384170770645" fill="rgba(249, 216, 137, 0.336527019739151)" />
  <circle cx="0.33775126934051514" cy="0.3647577166557312" r="0.07275091111660004" fill="rgba(242, 186, 9, 0.3248897194862366)" />
  <circle cx="0.9259657263755798" cy="0.2433444708585739" r="0.06458242237567902" fill="rgba(99, 74, 78, 0.45555737614631653)" />
  <circle cx="0.3446703851222992" cy="0.4003647267818451" r="0.024105936288833618" fill="rgba(106, 43, 0, 0.6406819820404053)" />
  <circle cx="0.6147871017456055" cy="0.8998942971229553" r="0.07104762643575668" fill="rgba(104, 79, 45, 0.563234806060791)" />
  <circle cx="0.4429647922515869" cy="0.6046099066734314" r="0.1653391420841217" fill="rgba(255, 185, 8, 0.12976886332035065)" />
  <circle cx="0.008038509637117386" cy="0.6549739837646484" r="0.0970843955874443" fill="rgba(221, 95, 98, 0.1791468858718872)" />
  <circle cx="0.4737343490123749" cy="0.5473382472991943" r="0.10038632899522781" fill="rgba(255, 243, 137, 0.3683170676231384)" />
  <circle cx="0.36752569675445557" cy="0.24765796959400177" r="0.03827929124236107" fill="rgba(113, 130, 136, 0.44321778416633606)" />
  <circle cx="0.4264678359031677" cy="0.0006958459853194654" r="0.08600097894668579" fill="rgba(124, 134, 86, 0.9190536141395569)" />
  <circle cx="0.17593975365161896" cy="1.0" r="0.06348307430744171" fill="rgba(0, 66, 113, 0.09943792223930359)" />
  <circle cx="0.1903831660747528" cy="0.07478147745132446" r="0.006576257292181253" fill="rgba(48, 55, 191, 0.374682754278183)" />
  <circle cx="0.9341785907745361" cy="0.15016211569309235" r="0.07050208002328873" fill="rgba(145, 136, 71, 0.5879513025283813)" />
  <circle cx="0.8877230882644653" cy="0.20217189192771912" r="0.10950332880020142" fill="rgba(189, 170, 38, 0.22450385987758636)" />
  <circle cx="0.9501721858978271" cy="0.2744952142238617" r="0.06570092588663101" fill="rgba(74, 177, 46, 0.34368130564689636)" />
  <circle cx="0.44418901205062866" cy="0.4984124004840851" r="0.030442019924521446" fill="rgba(94, 64, 0, 0.9151646494865417)" />
  <circle cx="0.390045702457428" cy="0.30933263897895813" r="0.08799514174461365" fill="rgba(242, 251, 236, 0.30219438672065735)" />
  <circle cx="0.0013134926557540894" cy="0.000503481540363282" r="0.13687850534915924" fill="rgba(182, 148, 141, 0.4030163586139679)" />
  <circle cx="0.1628560721874237" cy="0.8675090670585632" r="0.04555177688598633" fill="rgba(117, 222, 138, 0.5352588295936584)" />
  <circle cx="0.04752745106816292" cy="0.22826574742794037" r="0.12485668063163757" fill="rgba(130, 52, 54, 0.46569913625717163)" />
  <circle cx="0.5705984234809875" cy="0.3639512062072754" r="0.05044950172305107" fill="rgba(255, 220, 116, 0.143834188580513)" />
  <circle cx="0.735666811466217" cy="0.6508457064628601" r="0.04385243356227875" fill="rgba(96, 60, 91, 0.06414557248353958)" />
  <circle cx="0.5623010993003845" cy="0.6757994294166565" r="0.0903434157371521" fill="rgba(157, 87, 26, 0.15259084105491638)" />
  <circle cx="0.08065078407526016" cy="0.21526135504245758" r="0.09280747920274734" fill="rgba(152, 237, 187, 0.5988731980323792)" />
  <circle cx="1.0" cy="0.10276223719120026" r="0.020329073071479797" fill="rgba(254, 255, 131, 0.3769969046115875)" />
  <circle cx="0.638602614402771" cy="0.4457370936870575" r="0.03192886710166931" fill="rgba(228, 178, 52, 0.27884334325790405)" />
  <circle cx="0.32861822843551636" cy="0.1683681309223175" r="0.11230640858411789" fill="rgba(170, 110, 4, 0.14795291423797607)" />
  <circle cx="0.33682981133461" cy="0.0036857095547020435" r="0.11407315731048584" fill="rgba(138, 122, 69, 0.8156248331069946)" />
  <circle cx="0.3164007365703583" cy="0.5641891360282898" r="0.0486338809132576" fill="rgba(224, 183, 73, 0.4401598572731018)" />
  <circle cx="0.9981866478919983" cy="0.8689067959785461" r="0.06271174550056458" fill="rgba(117, 203, 61, 0.2757827639579773)" />
  <circle cx="0.36995404958724976" cy="0.2429870069026947" r="0.20365704596042633" fill="rgba(254, 81, 26, 0.06545411050319672)" />
  <circle cx="0.413489431142807" cy="0.3096964359283447" r="0.1216258853673935" fill="rgba(244, 225, 125, 0.3083907663822174)" />
  <circle cx="0.4134877622127533" cy="0.7216053605079651" r="0.05714693292975426" fill="rgba(255, 210, 65, 0.3347877860069275)" />
  <circle cx="0.8804160952568054" cy="0.15572766959667206" r="0.05051824450492859" fill="rgba(111, 71, 66, 0.16824670135974884)" />
  <circle cx="1.3268632756080478e-05" cy="0.4366404116153717" r="0.023359285667538643" fill="rgba(97, 75, 32, 0.4227578639984131)" />
  <circle cx="0.9987455010414124" cy="0.1265467405319214" r="0.05528442934155464" fill="rgba(160, 100, 94, 0.288289338350296)" />
  <circle cx="0.9262925982475281" cy="0.1937878131866455" r="0.10780659317970276" fill="rgba(233, 123, 0, 0.18161249160766602)" />
  <circle cx="0.4153233766555786" cy="0.7071717381477356" r="0.04081443324685097" fill="rgba(255, 242, 112, 0.7645535469055176)" />
  <circle cx="0.18094107508659363" cy="0.002463605487719178" r="0.08915887027978897" fill="rgba(128, 138, 62, 0.5314721465110779)" />
  <circle cx="0.14781658351421356" cy="0.04485928267240524" r="0.13265380263328552" fill="rgba(54, 49, 0, 0.9861602187156677)" />
  <circle cx="0.6394498944282532" cy="0.8512718677520752" r="0.02743576467037201" fill="rgba(133, 134, 101, 0.16567568480968475)" />
  <circle cx="0.33713796734809875" cy="0.9999789595603943" r="0.042710039764642715" fill="rgba(255, 214, 0, 0.23143041133880615)" />
  <circle cx="0.15470026433467865" cy="0.1651797741651535" r="0.07852476090192795" fill="rgba(184, 190, 51, 0.4638286232948303)" />
  <circle cx="0.5959720611572266" cy="0.47086265683174133" r="0.02246418409049511" fill="rgba(207, 171, 90, 0.5959395170211792)" />
  <circle cx="0.9972479343414307" cy="0.0948512852191925" r="0.024619210511446" fill="rgba(250, 252, 206, 0.1959579885005951)" />
  <circle cx="0.8337889909744263" cy="0.09967965632677078" r="0.055026162415742874" fill="rgba(50, 31, 133, 0.2575577199459076)" />
  <circle cx="0.9066491723060608" cy="0.14474616944789886" r="0.07128651440143585" fill="rgba(237, 215, 234, 0.5854294300079346)" />
  <circle cx="0.0" cy="0.964232325553894" r="0.015839505940675735" fill="rgba(99, 81, 28, 0.4154019057750702)" />
  <circle cx="0.48930153250694275" cy="0.25173819065093994" r="0.05729028582572937" fill="rgba(255, 235, 113, 0.34540829062461853)" />
  <circle cx="0.9538422226905823" cy="0.8642986416816711" r="0.09717216342687607" fill="rgba(3, 0, 20, 0.6335157752037048)" />
  <circle cx="0.37067121267318726" cy="0.18645817041397095" r="0.10499083250761032" fill="rgba(239, 149, 68, 0.05393068492412567)" />
  <circle cx="0.45659342408180237" cy="0.5374166965484619" r="0.09709375351667404" fill="rgba(255, 238, 128, 0.36906060576438904)" />
  <circle cx="0.5979430079460144" cy="0.36689239740371704" r="0.038921695202589035" fill="rgba(255, 206, 93, 0.23457805812358856)" />
  <circle cx="0.9191754460334778" cy="0.19301670789718628" r="0.07357607036828995" fill="rgba(255, 241, 255, 1.0)" />
  <circle cx="0.0" cy="0.22334876656532288" r="0.14392031729221344" fill="rgba(135, 214, 41, 0.32977259159088135)" />
  <circle cx="0.9116255044937134" cy="0.27276137471199036" r="0.09819409251213074" fill="rgba(140, 154, 94, 1.0)" />
  <circle cx="0.5120149254798889" cy="0.668254554271698" r="0.12183274328708649" fill="rgba(184, 120, 52, 0.18623073399066925)" />
  <circle cx="0.1855849176645279" cy="0.9327245950698853" r="0.015013671480119228" fill="rgba(101, 150, 44, 0.42544931173324585)" />
  <circle cx="0.513976514339447" cy="0.38862496614456177" r="0.044526051729917526" fill="rgba(255, 217, 118, 0.40953150391578674)" />
  <circle cx="0.1403358280658722" cy="0.0" r="0.08132214099168777" fill="rgba(35, 98, 131, 0.4243616759777069)" />
  <circle cx="0.4388289153575897" cy="1.0" r="0.06739083677530289" fill="rgba(210, 194, 124, 0.6651840806007385)" />
  <circle cx="0.5673234462738037" cy="0.2534804344177246" r="0.10017969459295273" fill="rgba(125, 79, 0, 0.10585591942071915)" />
  <circle cx="0.13405077159404755" cy="0.9721361398696899" r="0.02294357866048813" fill="rgba(123, 141, 33, 0.31384652853012085)" />
  <circle cx="0.4322115182876587" cy="1.0" r="0.09143032133579254" fill="rgba(255, 209, 17, 0.21157024800777435)" />
  <circle cx="0.42978301644325256" cy="0.6819695234298706" r="0.031011022627353668" fill="rgba(89, 50, 2, 0.7991214394569397)" />
  <circle cx="0.15395955741405487" cy="0.04416324198246002" r="0.03048795834183693" fill="rgba(43, 7, 167, 0.3823692798614502)" />
  <circle cx="0.5353500247001648" cy="0.11892548948526382" r="0.13593503832817078" fill="rgba(136, 94, 70, 0.15212956070899963)" />
  <circle cx="0.4347192049026489" cy="0.6890849471092224" r="0.03985409066081047" fill="rgba(175, 54, 83, 0.0294363833963871)" />
  <circle cx="0.7760654091835022" cy="0.001631680759601295" r="0.0428134948015213" fill="rgba(113, 53, 51, 0.2493569403886795)" />
  <circle cx="0.5221529603004456" cy="0.9636139869689941" r="0.18673384189605713" fill="rgba(251, 233, 78, 0.059472184628248215)" />
  <circle cx="0.09504769742488861" cy="0.08003188669681549" r="0.1684773862361908" fill="rgba(232, 240, 0, 0.3317279517650604)" />
  <circle cx="0.9646745324134827" cy="0.9947658181190491" r="0.18592195212841034" fill="rgba(125, 93, 65, 0.1761365532875061)" />
  <circle cx="0.37985846400260925" cy="0.6820167899131775" r="0.03356042131781578" fill="rgba(16, 0, 0, 0.5501568913459778)" />
  <circle cx="0.9525308012962341" cy="0.5101197957992554" r="0.10491442680358887" fill="rgba(121, 172, 84, 0.25046274065971375)" />
  <circle cx="0.5935094356536865" cy="0.779224157333374" r="0.17349998652935028" fill="rgba(105, 36, 42, 0.09113399684429169)" />
  <circle cx="0.17126278579235077" cy="0.17154298722743988" r="0.050255417823791504" fill="rgba(183, 33, 6, 0.632178783416748)" />
  <circle cx="0.4449940025806427" cy="0.35883039236068726" r="0.026267090812325478" fill="rgba(151, 105, 52, 0.010124496184289455)" />
  <circle cx="0.949729323387146" cy="0.23034419119358063" r="0.08353006839752197" fill="rgba(41, 13, 18, 0.7002819180488586)" />
  <circle cx="0.4521230459213257" cy="0.3518056571483612" r="0.044314708560705185" fill="rgba(138, 99, 46, 0.1992175132036209)" />
  <circle cx="0.9939839243888855" cy="0.20296883583068848" r="0.08982270210981369" fill="rgba(148, 231, 197, 0.2465151846408844)" />
  <circle cx="0.12401662766933441" cy="0.4526476263999939" r="0.014726182445883751" fill="rgba(95, 137, 149, 0.7221594452857971)" />
  <circle cx="0.44177886843681335" cy="0.5896605849266052" r="0.028350679203867912" fill="rgba(110, 90, 42, 0.999056875705719)" />
  <circle cx="0.5387537479400635" cy="0.15954209864139557" r="0.0365753211081028" fill="rgba(71, 39, 23, 0.2831538915634155)" />
  <circle cx="0.07433432340621948" cy="0.4459955096244812" r="0.02654303051531315" fill="rgba(160, 163, 145, 1.0)" />
  <circle cx="0.6277382373809814" cy="0.47542905807495117" r="0.03910188749432564" fill="rgba(210, 175, 75, 0.3797784447669983)" />
  <circle cx="0.23039638996124268" cy="0.0" r="0.07889670133590698" fill="rgba(0, 39, 184, 0.6102154850959778)" />
  <circle cx="0.30562084913253784" cy="0.8550474047660828" r="0.23018957674503326" fill="rgba(178, 85, 110, 0.18729007244110107)" />
  <circle cx="0.6496372222900391" cy="0.4643188714981079" r="0.06329010426998138" fill="rgba(255, 121, 0, 0.08712644875049591)" />
  <circle cx="0.7556990385055542" cy="0.028400788083672523" r="0.10096040368080139" fill="rgba(0, 41, 255, 0.308461457490921)" />
  <circle cx="0.29515576362609863" cy="0.3977230489253998" r="0.024209409952163696" fill="rgba(237, 213, 102, 0.6088694334030151)" />
  <circle cx="0.43800869584083557" cy="0.46173861622810364" r="0.017953991889953613" fill="rgba(95, 68, 39, 0.5809717774391174)" />
  <circle cx="0.7297365069389343" cy="1.0" r="0.11750674247741699" fill="rgba(96, 48, 26, 0.3094302713871002)" />
  <circle cx="0.5430944561958313" cy="0.00023315144062507898" r="0.0485474169254303" fill="rgba(78, 183, 199, 0.4514431357383728)" />
  <circle cx="0.9549771547317505" cy="0.45239710807800293" r="0.11295676231384277" fill="rgba(91, 103, 70, 1.0)" />
  <circle cx="0.7928480505943298" cy="0.005599983036518097" r="0.05552862212061882" fill="rgba(155, 88, 119, 0.18115265667438507)" />
  <circle cx="0.1684705913066864" cy="0.12409880757331848" r="0.0181864146143198" fill="rgba(112, 58, 52, 0.8456065058708191)" />
  <circle cx="0.8896455764770508" cy="0.2643469274044037" r="0.06990852952003479" fill="rgba(140, 175, 133, 0.7890251278877258)" />
  <circle cx="0.9546608924865723" cy="0.18414588272571564" r="0.024518411606550217" fill="rgba(36, 0, 0, 1.0)" />
  <circle cx="0.5326165556907654" cy="0.28092676401138306" r="0.07469958811998367" fill="rgba(194, 143, 30, 0.19891099631786346)" />
  <circle cx="0.44608035683631897" cy="0.43186524510383606" r="0.029415257275104523" fill="rgba(0, 0, 30, 0.4602883458137512)" />
  <circle cx="0.26146620512008667" cy="0.05479568615555763" r="0.04194173216819763" fill="rgba(210, 237, 43, 0.7017240524291992)" />
  <circle cx="0.9918242692947388" cy="0.52811598777771" r="0.07307130098342896" fill="rgba(167, 186, 128, 0.3694978952407837)" />
  <circle cx="0.0" cy="0.8755225539207458" r="0.05550156906247139" fill="rgba(0, 1, 3, 0.520551860332489)" />
  <circle cx="0.9175249934196472" cy="0.22340035438537598" r="0.15265220403671265" fill="rgba(252, 150, 113, 0.06264004856348038)" />
  <circle cx="0.443818062543869" cy="0.36674630641937256" r="0.017093848437070847" fill="rgba(78, 87, 122, 0.37918198108673096)" />
  <circle cx="0.7825452089309692" cy="0.036969441920518875" r="0.06023906171321869" fill="rgba(101, 178, 39, 0.5062559247016907)" />
  <circle cx="0.595469057559967" cy="0.3534357249736786" r="0.06715335696935654" fill="rgba(186, 141, 39, 0.2870720326900482)" />
  <circle cx="0.4754349887371063" cy="0.8717696070671082" r="0.043137531727552414" fill="rgba(196, 162, 78, 0.613802969455719)" />
  <circle cx="0.4678087830543518" cy="0.6860003471374512" r="0.03997737914323807" fill="rgba(7, 0, 17, 0.21155479550361633)" />
  <circle cx="0.24238649010658264" cy="0.16890746355056763" r="0.02790921740233898" fill="rgba(128, 83, 255, 0.4025367498397827)" />
  <circle cx="0.6960816979408264" cy="0.26327279210090637" r="0.1158732995390892" fill="rgba(84, 35, 50, 0.19154062867164612)" />
  <circle cx="0.7817694544792175" cy="0.9990246891975403" r="0.019340338185429573" fill="rgba(206, 148, 59, 0.23149047791957855)" />
  <circle cx="0.8912671208381653" cy="0.18842560052871704" r="0.11148044466972351" fill="rgba(154, 158, 104, 0.6221819519996643)" />
  <circle cx="0.48929211497306824" cy="0.6914675831794739" r="0.08172977715730667" fill="rgba(175, 180, 82, 0.09276222437620163)" />
  <circle cx="0.5389496684074402" cy="1.0" r="0.15346108376979828" fill="rgba(249, 213, 82, 0.2306070327758789)" />
  <circle cx="0.8592801690101624" cy="0.0" r="0.05719352141022682" fill="rgba(8, 0, 144, 0.5460153222084045)" />
  <circle cx="0.5322104096412659" cy="1.0" r="0.038831524550914764" fill="rgba(225, 188, 98, 0.7263100147247314)" />
  <circle cx="0.05473668500781059" cy="0.6426998376846313" r="0.11125316470861435" fill="rgba(54, 89, 60, 0.6096287965774536)" />
  <circle cx="0.9967397451400757" cy="0.36414268612861633" r="0.05684623494744301" fill="rgba(148, 255, 211, 0.4464457631111145)" />
  <circle cx="0.1549980193376541" cy="0.41682738065719604" r="0.06332375854253769" fill="rgba(153, 211, 91, 0.26453495025634766)" />
  <circle cx="0.09131114184856415" cy="0.6100420951843262" r="0.02135755866765976" fill="rgba(107, 114, 63, 0.6414392590522766)" />
  <circle cx="0.07021250575780869" cy="0.7994021773338318" r="0.032606177031993866" fill="rgba(163, 232, 162, 0.43541833758354187)" />
  <circle cx="0.15508447587490082" cy="0.8284714221954346" r="0.054593585431575775" fill="rgba(114, 226, 114, 0.17011304199695587)" />
  <circle cx="0.9660218358039856" cy="0.4229342043399811" r="0.11588967591524124" fill="rgba(29, 53, 37, 0.49476659297943115)" />
  <circle cx="0.9105114936828613" cy="0.1712600588798523" r="0.10199933499097824" fill="rgba(164, 226, 255, 0.21921376883983612)" />
  <circle cx="0.23552948236465454" cy="0.5246429443359375" r="0.08429497480392456" fill="rgba(139, 34, 35, 0.1907917559146881)" />
  <circle cx="0.5897135734558105" cy="0.0" r="0.013561641797423363" fill="rgba(80, 62, 20, 0.4777200520038605)" />
  <circle cx="0.08756553381681442" cy="0.33922651410102844" r="0.01294340007007122" fill="rgba(3, 152, 23, 0.12694929540157318)" />
  <circle cx="0.376631498336792" cy="0.6922373175621033" r="0.026818057522177696" fill="rgba(179, 150, 97, 1.0)" />
  <circle cx="0.8203523755073547" cy="0.12403152883052826" r="0.009297930635511875" fill="rgba(169, 35, 5, 0.2823891043663025)" />
  <circle cx="0.010748219676315784" cy="0.17908552289009094" r="0.08177503943443298" fill="rgba(96, 76, 22, 0.43121337890625)" />
  <circle cx="0.9370440244674683" cy="0.5848113894462585" r="0.09961283951997757" fill="rgba(221, 192, 64, 0.07155458629131317)" />
  <circle cx="0.7419021725654602" cy="0.02553703263401985" r="0.11261025816202164" fill="rgba(172, 154, 91, 0.6301654577255249)" />
  <circle cx="0.0028621952515095472" cy="0.13798004388809204" r="0.16142046451568604" fill="rgba(177, 165, 75, 0.18054881691932678)" />
  <circle cx="0.0015238283667713404" cy="0.9403936266899109" r="0.13730864226818085" fill="rgba(147, 109, 70, 0.32331663370132446)" />
  <circle cx="0.6160865426063538" cy="0.016878146678209305" r="0.11818006634712219" fill="rgba(175, 89, 37, 0.08097780495882034)" />
  <circle cx="0.4698559641838074" cy="0.7624868154525757" r="0.027753731235861778" fill="rgba(120, 93, 48, 0.4978233575820923)" />
  <circle cx="0.3637712597846985" cy="0.6455320715904236" r="0.07260666787624359" fill="rgba(255, 171, 12, 0.1571994423866272)" />
  <circle cx="0.020882057026028633" cy="0.44195327162742615" r="0.08127745240926743" fill="rgba(255, 255, 129, 0.24027226865291595)" />
  <circle cx="0.11639950424432755" cy="0.17727777361869812" r="0.16113464534282684" fill="rgba(193, 213, 146, 0.5211901664733887)" />
  <circle cx="0.9199709296226501" cy="0.38006922602653503" r="0.02770163118839264" fill="rgba(166, 153, 99, 0.2950696647167206)" />
  <circle cx="0.9505032300949097" cy="0.6974198818206787" r="0.10813470929861069" fill="rgba(82, 56, 35, 0.42550909519195557)" />
  <circle cx="0.035377513617277145" cy="0.44835367798805237" r="0.1535206437110901" fill="rgba(174, 255, 174, 0.09700626879930496)" />
  <circle cx="0.7405644059181213" cy="0.9974909424781799" r="0.08765603601932526" fill="rgba(213, 114, 45, 0.09142737835645676)" />
  <circle cx="0.001191414543427527" cy="0.5200712084770203" r="0.06098156422376633" fill="rgba(58, 72, 48, 1.0)" />
  <circle cx="0.43097299337387085" cy="0.7259708046913147" r="0.06182035431265831" fill="rgba(197, 153, 56, 0.3973333239555359)" />
  <circle cx="0.0" cy="0.27770137786865234" r="0.20433250069618225" fill="rgba(239, 255, 155, 0.09676184505224228)" />
  <circle cx="0.2812609374523163" cy="0.4974382817745209" r="0.18769721686840057" fill="rgba(95, 27, 61, 0.16591763496398926)" />
  <circle cx="0.9996005892753601" cy="0.0775168389081955" r="0.1319570392370224" fill="rgba(71, 120, 114, 0.22363583743572235)" />
  <circle cx="0.4511401653289795" cy="0.7431796789169312" r="0.07860645651817322" fill="rgba(216, 172, 90, 0.0992775708436966)" />
  <circle cx="0.3815843462944031" cy="0.0004183629935141653" r="0.09796469658613205" fill="rgba(148, 156, 103, 0.6406543850898743)" />
  <circle cx="0.07648007571697235" cy="0.2307552695274353" r="0.15981003642082214" fill="rgba(179, 207, 192, 0.733231782913208)" />
  <circle cx="0.2326638102531433" cy="0.03595863655209541" r="0.14925476908683777" fill="rgba(164, 167, 98, 0.6564462184906006)" />
  <circle cx="0.3816048204898834" cy="0.5861309766769409" r="0.10713005065917969" fill="rgba(255, 208, 92, 0.2452513426542282)" />
  <circle cx="0.09638258069753647" cy="0.1406300663948059" r="0.13488459587097168" fill="rgba(188, 175, 57, 0.9924860000610352)" />
  <circle cx="0.08768178522586823" cy="0.35677608847618103" r="0.01869969256222248" fill="rgba(84, 217, 183, 0.4766582250595093)" />
  <circle cx="0.9758157730102539" cy="0.2859395146369934" r="0.07318514585494995" fill="rgba(255, 254, 178, 0.2814828157424927)" />
  <circle cx="0.1780291497707367" cy="0.42987510561943054" r="0.0710463598370552" fill="rgba(255, 134, 74, 0.05916246399283409)" />
  <circle cx="0.14827024936676025" cy="0.15467528998851776" r="0.1373317986726761" fill="rgba(166, 214, 183, 0.46568697690963745)" />
  <circle cx="0.5344426035881042" cy="0.9267944693565369" r="0.04245603829622269" fill="rgba(143, 95, 11, 0.17179639637470245)" />
  <circle cx="0.6058922410011292" cy="0.7757177948951721" r="0.001953125" fill="rgba(74, 57, 30, 0.2632536292076111)" />
  <circle cx="0.6861236095428467" cy="0.2431170642375946" r="0.09218374639749527" fill="rgba(35, 20, 23, 0.45511794090270996)" />
  <circle cx="0.9707462191581726" cy="0.7938884496688843" r="0.08160155266523361" fill="rgba(113, 146, 108, 0.20170527696609497)" />
  <circle cx="0.9021048545837402" cy="0.0" r="0.10761617869138718" fill="rgba(89, 157, 239, 0.4189903140068054)" />
  <circle cx="0.4429914355278015" cy="0.5322038531303406" r="0.03851676359772682" fill="rgba(57, 39, 10, 0.2953595817089081)" />
  <circle cx="0.7790718078613281" cy="0.41265949606895447" r="0.14256858825683594" fill="rgba(34, 14, 25, 0.25190091133117676)" />
  <circle cx="0.9967257380485535" cy="0.8888322710990906" r="0.08862042427062988" fill="rgba(232, 230, 102, 0.07516822218894958)" />
  <circle cx="0.8844127655029297" cy="0.1164378821849823" r="0.06039045378565788" fill="rgba(81, 48, 0, 1.0)" />
  <circle cx="0.5350339412689209" cy="0.5879361629486084" r="0.12352366745471954" fill="rgba(134, 77, 30, 0.2676179111003876)" />
  <circle cx="0.30043479800224304" cy="0.8680400848388672" r="0.14391420781612396" fill="rgba(83, 36, 38, 0.2641334533691406)" />
  <circle cx="0.1496112197637558" cy="0.883056104183197" r="0.05536371096968651" fill="rgba(166, 220, 75, 0.2109013944864273)" />
  <circle cx="0.8158684372901917" cy="0.0" r="0.10544448345899582" fill="rgba(24, 61, 13, 0.5086237788200378)" />
  <circle cx="0.40202397108078003" cy="0.03232872486114502" r="0.04773988574743271" fill="rgba(54, 123, 123, 0.19917242228984833)" />
  <circle cx="0.7359635233879089" cy="0.46493956446647644" r="0.10457219183444977" fill="rgba(41, 17, 36, 0.23262648284435272)" />
  <circle cx="0.3482302725315094" cy="0.4324561059474945" r="0.029412446543574333" fill="rgba(11, 0, 0, 1.0)" />
  <circle cx="0.0" cy="0.3572025001049042" r="0.16559214890003204" fill="rgba(255, 144, 8, 0.0825045257806778)" />
  <circle cx="0.45443952083587646" cy="0.1566053330898285" r="0.04996742308139801" fill="rgba(144, 99, 11, 0.16412636637687683)" />
  <circle cx="0.37634846568107605" cy="0.02889086678624153" r="0.04082150012254715" fill="rgba(36, 73, 67, 0.401837021112442)" />
  <circle cx="0.07043754309415817" cy="0.8165726661682129" r="0.107782281935215" fill="rgba(189, 201, 86, 0.26272639632225037)" />
  <circle cx="0.4081777334213257" cy="0.7415329217910767" r="0.027333354577422142" fill="rgba(255, 212, 109, 0.31488654017448425)" />
  <circle cx="0.036275021731853485" cy="0.6370742917060852" r="0.024915918707847595" fill="rgba(246, 225, 167, 0.4821566641330719)" />
  <circle cx="0.13484348356723785" cy="0.4944879412651062" r="0.06641291081905365" fill="rgba(202, 245, 128, 0.13842128217220306)" />
  <circle cx="0.07381393015384674" cy="0.06122255697846413" r="0.12753742933273315" fill="rgba(36, 73, 45, 0.2064344882965088)" />
  <circle cx="0.6635919809341431" cy="0.8822441697120667" r="0.06174200773239136" fill="rgba(113, 45, 0, 0.19694317877292633)" />
  <circle cx="0.46225687861442566" cy="0.8505996465682983" r="0.03511554002761841" fill="rgba(216, 178, 86, 0.4326804578304291)" />
  <circle cx="0.8724291920661926" cy="0.1650027185678482" r="0.03123307414352894" fill="rgba(79, 85, 55, 0.8088017106056213)" />
  <circle cx="0.2859996557235718" cy="0.38211968541145325" r="0.059539347887039185" fill="rgba(64, 113, 149, 0.09872642159461975)" />
  <circle cx="1.0" cy="0.6844279170036316" r="0.0644235610961914" fill="rgba(111, 94, 64, 0.3283790051937103)" />
  <circle cx="0.05181470513343811" cy="0.3060886859893799" r="0.09550090879201889" fill="rgba(150, 151, 115, 0.8054196834564209)" />
  <circle cx="0.6386377811431885" cy="0.29584094882011414" r="0.15269318222999573" fill="rgba(6, 0, 43, 0.10671050101518631)" />
  <circle cx="0.994599461555481" cy="0.15420325100421906" r="0.12849655747413635" fill="rgba(255, 223, 116, 0.06166575103998184)" />
  <circle cx="0.035406410694122314" cy="0.8166818022727966" r="0.09670627862215042" fill="rgba(69, 176, 254, 0.08735788613557816)" />
  <circle cx="0.03208904340863228" cy="0.1062028780579567" r="0.09197588264942169" fill="rgba(243, 221, 113, 0.34277278184890747)" />
  <circle cx="0.9899195432662964" cy="0.32770541310310364" r="0.12153857201337814" fill="rgba(194, 182, 118, 0.3121130168437958)" />
  <circle cx="0.20501336455345154" cy="0.23608863353729248" r="0.1354352980852127" fill="rgba(72, 21, 0, 0.16213874518871307)" />
  <circle cx="0.5684933066368103" cy="0.8387342691421509" r="0.1025845855474472" fill="rgba(84, 62, 50, 0.17244461178779602)" />
  <circle cx="0.2823939323425293" cy="0.00945499911904335" r="0.13701261579990387" fill="rgba(138, 145, 95, 0.7211491465568542)" />
  <circle cx="0.8629570603370667" cy="0.008897030726075172" r="0.14922703802585602" fill="rgba(134, 120, 7, 0.4465232193470001)" />
  <circle cx="3.876877963193692e-05" cy="0.060074109584093094" r="0.15390121936798096" fill="rgba(57, 51, 6, 0.24291157722473145)" />
  <circle cx="0.2885510325431824" cy="0.0" r="0.05755144730210304" fill="rgba(48, 64, 18, 0.1847822666168213)" />
  <circle cx="0.8212616443634033" cy="0.20259493589401245" r="0.024707874283194542" fill="rgba(96, 121, 73, 0.34733742475509644)" />
  <circle cx="0.4538462460041046" cy="0.6062501668930054" r="0.01872118189930916" fill="rgba(32, 0, 0, 0.3773455321788788)" />
  <circle cx="0.15259096026420593" cy="0.5178083181381226" r="0.053177833557128906" fill="rgba(163, 248, 135, 0.12973378598690033)" />
  <circle cx="0.12069389224052429" cy="0.8400787115097046" r="0.042191654443740845" fill="rgba(175, 168, 70, 0.4490664601325989)" />
  <circle cx="0.49108436703681946" cy="0.011140137910842896" r="0.05801128223538399" fill="rgba(128, 177, 113, 0.2506539821624756)" />
  <circle cx="0.0" cy="0.6467567682266235" r="0.03436342626810074" fill="rgba(94, 95, 77, 0.790455162525177)" />
  <circle cx="0.5214975476264954" cy="0.5164772868156433" r="0.06790336966514587" fill="rgba(254, 192, 89, 0.22373057901859283)" />
  <circle cx="0.21720129251480103" cy="0.9375287294387817" r="0.1266007125377655" fill="rgba(83, 46, 37, 0.2459084540605545)" />
  <circle cx="0.38688376545906067" cy="0.4687979519367218" r="0.12515228986740112" fill="rgba(242, 200, 93, 0.25250858068466187)" />
  <circle cx="0.14344190061092377" cy="0.10422422736883163" r="0.02985403873026371" fill="rgba(48, 19, 18, 0.23337005078792572)" />
  <circle cx="0.43151211738586426" cy="0.6361374855041504" r="0.038330040872097015" fill="rgba(31, 0, 6, 0.3194272220134735)" />
  <circle cx="0.4584163725376129" cy="0.657117486000061" r="0.14487814903259277" fill="rgba(186, 77, 18, 0.09308408945798874)" />
  <circle cx="0.11693798005580902" cy="0.842712938785553" r="0.07092052698135376" fill="rgba(112, 130, 93, 0.6565912961959839)" />
  <circle cx="0.8468652963638306" cy="0.059535086154937744" r="0.1531190127134323" fill="rgba(150, 151, 90, 0.6481451988220215)" />
  <circle cx="0.7042396664619446" cy="0.017308974638581276" r="0.08380932360887527" fill="rgba(0, 120, 161, 0.3033325970172882)" />
  <circle cx="0.08925257623195648" cy="0.3195878565311432" r="0.020607326179742813" fill="rgba(189, 94, 106, 0.10849949717521667)" />
  <circle cx="0.31291139125823975" cy="0.3877240717411041" r="0.051470231264829636" fill="rgba(182, 146, 70, 0.4865333139896393)" />
  <circle cx="0.9231979846954346" cy="0.8026273846626282" r="0.06453819572925568" fill="rgba(40, 39, 35, 0.424765020608902)" />
  <circle cx="0.4052850902080536" cy="0.4473384618759155" r="0.07541510462760925" fill="rgba(58, 0, 0, 0.18426644802093506)" />
  <circle cx="0.7270670533180237" cy="0.08968480676412582" r="0.0455506257712841" fill="rgba(25, 92, 30, 0.2619625926017761)" />
  <circle cx="0.008895711973309517" cy="0.18297655880451202" r="0.15203805267810822" fill="rgba(170, 184, 120, 1.0)" />
  <circle cx="0.998632550239563" cy="0.06900746375322342" r="0.10088006407022476" fill="rgba(163, 184, 198, 0.0876069962978363)" />
  <circle cx="0.028611065819859505" cy="0.810440719127655" r="0.07152727991342545" fill="rgba(40, 0, 0, 0.16632115840911865)" />
  <circle cx="0.6990414261817932" cy="0.022897103801369667" r="0.09528899937868118" fill="rgba(127, 153, 97, 0.41208717226982117)" />
  <circle cx="0.09624549746513367" cy="0.11856469511985779" r="0.03201374039053917" fill="rgba(108, 213, 255, 0.5176782011985779)" />
  <circle cx="0.023601718246936798" cy="0.24360084533691406" r="0.12213300168514252" fill="rgba(169, 166, 103, 1.0)" />
  <circle cx="0.4857449531555176" cy="0.808163046836853" r="0.05309746041893959" fill="rgba(75, 40, 28, 0.3494582772254944)" />
  <circle cx="0.013840191066265106" cy="0.5509518980979919" r="0.13858547806739807" fill="rgba(71, 83, 55, 0.33538100123405457)" />
  <circle cx="0.3403058648109436" cy="0.5000507831573486" r="0.07882189005613327" fill="rgba(250, 206, 104, 0.24508242309093475)" />
  <circle cx="0.021497437730431557" cy="0.09744036197662354" r="0.18150803446769714" fill="rgba(158, 47, 118, 0.0363590233027935)" />
  <circle cx="0.12757597863674164" cy="0.7541090846061707" r="0.0392209030687809" fill="rgba(129, 161, 116, 0.48766955733299255)" />
  <circle cx="0.45168304443359375" cy="0.0" r="0.04743071272969246" fill="rgba(45, 68, 59, 0.23065979778766632)" />
  <circle cx="0.4036376178264618" cy="0.0" r="0.01873723790049553" fill="rgba(119, 112, 0, 0.5424081683158875)" />
  <circle cx="0.21244792640209198" cy="0.3270447552204132" r="0.16130763292312622" fill="rgba(255, 110, 152, 0.04584017023444176)" />
  <circle cx="0.9022562503814697" cy="0.23446714878082275" r="0.023322029039263725" fill="rgba(122, 129, 113, 0.12691444158554077)" />
  <circle cx="0.15114980936050415" cy="0.23263944685459137" r="0.09821352362632751" fill="rgba(73, 120, 166, 0.29008957743644714)" />
  <circle cx="0.023888032883405685" cy="0.730667233467102" r="0.16641467809677124" fill="rgba(124, 150, 107, 0.12520892918109894)" />
  <circle cx="0.9031239151954651" cy="0.08155974745750427" r="0.07301798462867737" fill="rgba(236, 214, 128, 0.068806491792202)" />
  <circle cx="0.3465624153614044" cy="0.682436466217041" r="0.01728127896785736" fill="rgba(246, 222, 110, 0.2880631685256958)" />
  <circle cx="0.0" cy="0.35717689990997314" r="0.1409873068332672" fill="rgba(226, 252, 154, 0.07744842022657394)" />
  <circle cx="0.8934288024902344" cy="0.14851319789886475" r="0.07160580903291702" fill="rgba(178, 186, 135, 0.15441156923770905)" />
  <circle cx="0.09269692003726959" cy="0.395308256149292" r="0.05798444524407387" fill="rgba(195, 198, 183, 0.3341231048107147)" />
  <circle cx="0.7656586170196533" cy="0.07065904885530472" r="0.08909245580434799" fill="rgba(145, 146, 83, 0.6412404775619507)" />
  <circle cx="0.345804899930954" cy="0.5032298564910889" r="0.08285893499851227" fill="rgba(239, 189, 99, 0.14987602829933167)" />
  <circle cx="0.9790422916412354" cy="0.29922372102737427" r="0.15880468487739563" fill="rgba(197, 251, 128, 0.15360157191753387)" />
  <circle cx="0.9458765387535095" cy="0.40498223900794983" r="0.11092817038297653" fill="rgba(104, 119, 69, 0.40282654762268066)" />
  <circle cx="0.2077067494392395" cy="0.14886295795440674" r="0.04171518608927727" fill="rgba(135, 121, 97, 0.13809753954410553)" />
  <circle cx="0.5907912850379944" cy="0.9634721279144287" r="0.12676674127578735" fill="rgba(255, 212, 50, 0.1950439065694809)" />
  <circle cx="0.6634212136268616" cy="0.8864161968231201" r="0.04236476123332977" fill="rgba(206, 169, 40, 0.11796728521585464)" />
  <circle cx="0.11724583804607391" cy="0.33169785141944885" r="0.019415244460105896" fill="rgba(29, 31, 0, 0.8712826371192932)" />
  <circle cx="0.06849265843629837" cy="0.7993309497833252" r="0.1089119166135788" fill="rgba(57, 149, 142, 0.11963637173175812)" />
  <circle cx="0.047513436526060104" cy="0.23750941455364227" r="0.13299228250980377" fill="rgba(123, 104, 6, 0.18453079462051392)" />
  <circle cx="0.6149719953536987" cy="0.9606457352638245" r="0.08381541073322296" fill="rgba(224, 198, 92, 0.30508536100387573)" />
  <circle cx="0.1036987230181694" cy="0.7511931657791138" r="0.001953125" fill="rgba(48, 199, 74, 0.5307137370109558)" />
  <circle cx="0.6431419253349304" cy="0.9680876731872559" r="0.09439042210578918" fill="rgba(255, 183, 62, 0.10020715743303299)" />
  <circle cx="0.055501699447631836" cy="0.031741589307785034" r="0.15776126086711884" fill="rgba(32, 99, 105, 0.3954985439777374)" />
  <circle cx="0.0" cy="0.018943006172776222" r="0.21456289291381836" fill="rgba(158, 95, 159, 0.10968632996082306)" />
  <circle cx="0.053040631115436554" cy="0.4803040325641632" r="0.02113271690905094" fill="rgba(215, 216, 134, 0.19933199882507324)" />
  <circle cx="0.6121322512626648" cy="0.9451335668563843" r="0.05088130384683609" fill="rgba(229, 200, 96, 0.32343047857284546)" />
  <circle cx="0.10922785848379135" cy="0.38422736525535583" r="0.07253983616828918" fill="rgba(156, 161, 119, 0.7299724221229553)" />
  <circle cx="0.40580978989601135" cy="0.37215206027030945" r="0.03491008281707764" fill="rgba(255, 235, 166, 0.8520777225494385)" />
  <circle cx="0.14472660422325134" cy="0.7258028984069824" r="0.06276747584342957" fill="rgba(91, 137, 69, 0.20955418050289154)" />
  <circle cx="0.007618346251547337" cy="0.858851432800293" r="0.0941406860947609" fill="rgba(167, 92, 67, 0.0799739807844162)" />
  <circle cx="0.3344624936580658" cy="1.0" r="0.028184155002236366" fill="rgba(185, 134, 42, 0.4749572277069092)" />
  <circle cx="0.6585221886634827" cy="0.001023859134875238" r="0.09819319099187851" fill="rgba(122, 134, 84, 0.6969867944717407)" />
  <circle cx="0.6526598930358887" cy="0.8461366891860962" r="0.038703396916389465" fill="rgba(171, 151, 62, 0.1374322772026062)" />
  <circle cx="0.44319280982017517" cy="0.6312028169631958" r="0.13876883685588837" fill="rgba(199, 163, 94, 0.16289837658405304)" />
  <circle cx="0.27638137340545654" cy="0.011812007054686546" r="0.01433485746383667" fill="rgba(151, 175, 148, 0.4146554172039032)" />
  <circle cx="0.4198349118232727" cy="0.6157568097114563" r="0.025469951331615448" fill="rgba(43, 0, 2, 0.300493061542511)" />
  <circle cx="0.15366174280643463" cy="0.32038724422454834" r="0.09220954775810242" fill="rgba(255, 215, 64, 0.09350153803825378)" />
  <circle cx="0.9283819198608398" cy="0.055545635521411896" r="0.1451047956943512" fill="rgba(113, 106, 46, 0.0864415317773819)" />
  <circle cx="0.4243950843811035" cy="0.8652559518814087" r="0.09163219481706619" fill="rgba(68, 58, 39, 0.12924163043498993)" />
  <circle cx="0.2199379950761795" cy="0.009520494379103184" r="0.07757770270109177" fill="rgba(99, 136, 74, 0.326707124710083)" />
  <circle cx="0.13231529295444489" cy="0.6508677005767822" r="0.11547119915485382" fill="rgba(91, 58, 41, 0.24166899919509888)" />
  <circle cx="0.38303548097610474" cy="0.0" r="0.03912581875920296" fill="rgba(101, 126, 88, 0.5134937763214111)" />
  <circle cx="0.07359632104635239" cy="0.03253526613116264" r="0.11300630867481232" fill="rgba(217, 212, 115, 0.15793076157569885)" />
  <circle cx="0.39058348536491394" cy="0.2989210784435272" r="0.10706683248281479" fill="rgba(248, 214, 120, 0.2833150327205658)" />
  <circle cx="0.26783668994903564" cy="0.5331109762191772" r="0.03010399453341961" fill="rgba(45, 0, 0, 0.13804197311401367)" />
  <circle cx="0.0" cy="0.014036545529961586" r="0.2587439715862274" fill="rgba(60, 100, 32, 0.12060914933681488)" />
  <circle cx="1.0" cy="0.6332224607467651" r="0.0679352805018425" fill="rgba(39, 94, 97, 0.2871438264846802)" />
  <circle cx="0.4019230902194977" cy="0.16731864213943481" r="0.036675166338682175" fill="rgba(130, 97, 37, 0.3573565185070038)" />
  <circle cx="0.5582223534584045" cy="0.5265768766403198" r="0.07332111150026321" fill="rgba(219, 174, 85, 0.3355412185192108)" />
  <circle cx="0.5651785135269165" cy="0.8250620365142822" r="0.04633192718029022" fill="rgba(53, 29, 37, 0.3621772825717926)" />
  <circle cx="0.07483956962823868" cy="0.22829413414001465" r="0.029537420719861984" fill="rgba(159, 94, 0, 0.3349117040634155)" />
  <circle cx="0.9788334369659424" cy="0.798312246799469" r="0.09555031359195709" fill="rgba(134, 198, 121, 0.10184819996356964)" />
  <circle cx="0.2983044683933258" cy="0.5554075241088867" r="0.08801370114088058" fill="rgba(93, 40, 36, 0.09048716723918915)" />
  <circle cx="0.46793609857559204" cy="0.14690722525119781" r="0.0893048569560051" fill="rgba(129, 88, 35, 0.11990417540073395)" />
  <circle cx="0.9701285362243652" cy="0.31689876317977905" r="0.060148920863866806" fill="rgba(255, 255, 162, 0.1748586744070053)" />
  <circle cx="0.2562214434146881" cy="0.012052611447870731" r="0.11017667502164841" fill="rgba(100, 116, 72, 0.41582173109054565)" />
  <circle cx="0.14314909279346466" cy="0.11334607750177383" r="0.02497859112918377" fill="rgba(2, 56, 125, 0.2328117936849594)" />
  <circle cx="0.6690471768379211" cy="0.6028336882591248" r="0.11859051138162613" fill="rgba(68, 38, 21, 0.14711828529834747)" />
  <circle cx="0.45828577876091003" cy="0.006211589556187391" r="0.07363452762365341" fill="rgba(127, 140, 98, 0.5957292318344116)" />
  <circle cx="0.2443714290857315" cy="0.49122899770736694" r="0.07579261064529419" fill="rgba(255, 185, 71, 0.08185172826051712)" />
  <circle cx="0.5606444478034973" cy="0.8668071031570435" r="0.05345795303583145" fill="rgba(116, 74, 23, 0.2737942039966583)" />
  <circle cx="1.0" cy="0.07283622771501541" r="0.16292542219161987" fill="rgba(90, 67, 0, 0.13734522461891174)" />
  <circle cx="0.4200122356414795" cy="0.9986155033111572" r="0.07279111444950104" fill="rgba(213, 177, 79, 0.3857090473175049)" />
  <circle cx="0.23380540311336517" cy="0.0882820338010788" r="0.07708817720413208" fill="rgba(158, 159, 106, 0.25546786189079285)" />
  <circle cx="0.3987553119659424" cy="0.3334282338619232" r="0.07927754521369934" fill="rgba(223, 189, 120, 0.4093257486820221)" />
  <circle cx="0.14142443239688873" cy="0.10642916709184647" r="0.08816494792699814" fill="rgba(144, 147, 66, 0.3785095810890198)" />
  <circle cx="0.17415478825569153" cy="0.0" r="0.05928109958767891" fill="rgba(60, 91, 81, 0.17459622025489807)" />
  <circle cx="0.16257157921791077" cy="0.9805488586425781" r="0.15231160819530487" fill="rgba(28, 0, 33, 0.14098970592021942)" />
  <circle cx="0.3399149775505066" cy="0.37095946073532104" r="0.0904645100235939" fill="rgba(36, 0, 0, 0.10316335409879684)" />
  <circle cx="0.3201334476470947" cy="1.0" r="0.06518911570310593" fill="rgba(187, 115, 43, 0.10692756623029709)" />
  <circle cx="0.7801923155784607" cy="0.0" r="0.06145554780960083" fill="rgba(6, 133, 188, 0.08427391946315765)" />
  <circle cx="0.9704515337944031" cy="0.45518025755882263" r="0.05832532048225403" fill="rgba(94, 141, 123, 0.17191308736801147)" />
  <circle cx="0.9482923150062561" cy="0.3606990873813629" r="0.05753902345895767" fill="rgba(143, 145, 84, 0.15351001918315887)" />
  <circle cx="0.5816494822502136" cy="0.0" r="0.01704232394695282" fill="rgba(15, 53, 36, 0.6452676057815552)" />
  <circle cx="0.17531618475914001" cy="0.21812334656715393" r="0.045520421117544174" fill="rgba(161, 182, 180, 0.16778969764709473)" />
  <circle cx="0.4308481216430664" cy="0.657075047492981" r="0.06176867336034775" fill="rgba(56, 0, 0, 0.09181652218103409)" />
  <circle cx="0.8676660656929016" cy="0.0" r="0.1970369964838028" fill="rgba(93, 133, 102, 0.16896064579486847)" />
  <circle cx="0.05883897840976715" cy="0.15569129586219788" r="0.08738620579242706" fill="rgba(43, 71, 121, 0.1650928109884262)" />
  <circle cx="0.5569087266921997" cy="0.8620192408561707" r="0.14453423023223877" fill="rgba(138, 84, 29, 0.13177181780338287)" />
  <circle cx="0.12022144347429276" cy="0.0529114305973053" r="0.17908670008182526" fill="rgba(67, 109, 66, 0.14097322523593903)" />
  <circle cx="0.871606707572937" cy="0.5306109189987183" r="0.22807207703590393" fill="rgba(18, 17, 41, 0.1426096111536026)" />
  <circle cx="0.5429951548576355" cy="0.42759236693382263" r="0.00789741799235344" fill="rgba(217, 179, 120, 0.4180140197277069)" />
  <circle cx="0.19655552506446838" cy="0.7957848310470581" r="0.11365620791912079" fill="rgba(154, 30, 40, 0.07257699966430664)" />
  <circle cx="0.9514724016189575" cy="0.6402473449707031" r="0.08152036368846893" fill="rgba(51, 62, 47, 0.5246212482452393)" />
  <circle cx="0.8978077173233032" cy="0.3267887532711029" r="0.02955196425318718" fill="rgba(254, 227, 118, 0.20591090619564056)" />
  <circle cx="0.4789218306541443" cy="0.439880907535553" r="0.011098292656242847" fill="rgba(144, 103, 52, 0.7641818523406982)" />
  <circle cx="0.8074363470077515" cy="0.0708882063627243" r="0.09202521294355392" fill="rgba(151, 184, 165, 0.10624285042285919)" />
  <circle cx="0.6072052717208862" cy="0.7984427213668823" r="0.1425458937883377" fill="rgba(83, 46, 25, 0.13246163725852966)" />
  <circle cx="0.564953625202179" cy="0.4016181230545044" r="0.09677397459745407" fill="rgba(187, 159, 84, 0.14038357138633728)" />
  <circle cx="0.5587777495384216" cy="0.0009214599267579615" r="0.07937256991863251" fill="rgba(123, 137, 88, 0.6876006126403809)" />
  <circle cx="0.3588898777961731" cy="0.6586078405380249" r="0.054422784596681595" fill="rgba(249, 208, 54, 0.13153906166553497)" />
  <circle cx="0.9210602641105652" cy="0.009137637913227081" r="0.12591835856437683" fill="rgba(124, 132, 85, 0.3902303874492645)" />
  <circle cx="0.20612768828868866" cy="0.45797964930534363" r="0.05565500631928444" fill="rgba(101, 65, 89, 0.06498267501592636)" />
  <circle cx="0.11398036032915115" cy="0.9312111139297485" r="0.08672104775905609" fill="rgba(92, 81, 23, 0.13939133286476135)" />
  <circle cx="0.5198855996131897" cy="0.05458928644657135" r="0.04947918653488159" fill="rgba(162, 93, 23, 0.11374153196811676)" />
  <circle cx="0.6775596737861633" cy="0.03885116055607796" r="0.1170620545744896" fill="rgba(170, 104, 46, 0.09548086673021317)" />
  <circle cx="0.029853614047169685" cy="0.26402848958969116" r="0.10782471299171448" fill="rgba(143, 161, 141, 0.4332917630672455)" />
  <circle cx="0.5128815770149231" cy="0.984406054019928" r="0.09378694742918015" fill="rgba(189, 152, 81, 0.2253669649362564)" />
  <circle cx="0.8471808433532715" cy="0.1569281667470932" r="0.02632935531437397" fill="rgba(141, 155, 102, 0.4289824366569519)" />
  <circle cx="0.14953283965587616" cy="0.09873461723327637" r="0.17845383286476135" fill="rgba(138, 154, 105, 0.30082228779792786)" />
  <circle cx="0.17492297291755676" cy="0.774050772190094" r="0.04784451425075531" fill="rgba(248, 185, 93, 0.07381948083639145)" />
  <circle cx="0.0033021762501448393" cy="0.20310959219932556" r="0.020009370520710945" fill="rgba(61, 67, 18, 0.11400477588176727)" />
  <circle cx="0.13088952004909515" cy="0.7182633876800537" r="0.03148563206195831" fill="rgba(151, 166, 104, 0.4409950375556946)" />
  <circle cx="0.12767942249774933" cy="0.6615615487098694" r="0.17539054155349731" fill="rgba(88, 35, 32, 0.14831247925758362)" />
  <circle cx="0.3727508783340454" cy="0.18385514616966248" r="0.06781922280788422" fill="rgba(96, 7, 0, 0.05924025550484657)" />
  <circle cx="0.07171623408794403" cy="0.8717198967933655" r="0.06288661062717438" fill="rgba(134, 131, 109, 0.15762309730052948)" />
  <circle cx="0.68328857421875" cy="0.7139657139778137" r="0.04685341566801071" fill="rgba(53, 31, 53, 0.14020058512687683)" />
  <circle cx="0.42764195799827576" cy="0.30737096071243286" r="0.148664191365242" fill="rgba(253, 196, 64, 0.07587500661611557)" />
  <circle cx="0.07634595781564713" cy="0.351688951253891" r="0.06725598871707916" fill="rgba(143, 151, 149, 0.31621474027633667)" />
  <circle cx="0.9352495074272156" cy="0.7228938937187195" r="0.014738370664417744" fill="rgba(24, 10, 1, 0.25881823897361755)" />
  <circle cx="0.9029186367988586" cy="1.0" r="0.06184455379843712" fill="rgba(47, 25, 33, 0.7371344566345215)" />
  <circle cx="0.909233570098877" cy="0.17098142206668854" r="0.04499335214495659" fill="rgba(35, 47, 0, 0.18110880255699158)" />
  <circle cx="0.043595001101493835" cy="0.4668594002723694" r="0.09560485184192657" fill="rgba(255, 209, 164, 0.06468963623046875)" />
  <circle cx="0.9035125970840454" cy="0.337983101606369" r="0.05894332751631737" fill="rgba(86, 91, 42, 0.2991369962692261)" />
  <circle cx="0.40776363015174866" cy="0.41980811953544617" r="0.02753259986639023" fill="rgba(225, 185, 87, 0.5691165328025818)" />
  <circle cx="0.5012969970703125" cy="0.16180415451526642" r="0.10171196609735489" fill="rgba(165, 121, 68, 0.08454015105962753)" />
  <circle cx="0.20920522511005402" cy="0.0" r="0.2707943022251129" fill="rgba(171, 119, 7, 0.08171859383583069)" />
  <circle cx="0.5071972012519836" cy="0.7097986936569214" r="0.020841337740421295" fill="rgba(162, 122, 58, 0.5954611301422119)" />
  <circle cx="0.9860063195228577" cy="0.8689290881156921" r="0.019391177222132683" fill="rgba(255, 228, 97, 0.1578926146030426)" />
  <circle cx="0.9437394142150879" cy="0.6097357869148254" r="0.09241718053817749" fill="rgba(131, 193, 144, 0.04182073846459389)" />
  <circle cx="0.9586601257324219" cy="0.21095378696918488" r="0.1287694126367569" fill="rgba(130, 138, 87, 0.479256272315979)" />
  <circle cx="0.4933687746524811" cy="0.646003007888794" r="0.023645980283617973" fill="rgba(73, 32, 2, 0.21113406121730804)" />
  <circle cx="0.5515784621238708" cy="0.023117927834391594" r="0.05151176452636719" fill="rgba(132, 140, 94, 0.5841412544250488)" />
  <circle cx="0.0" cy="0.8389226794242859" r="0.2498435229063034" fill="rgba(46, 97, 70, 0.06705591082572937)" />
  <circle cx="0.9114325046539307" cy="0.43741080164909363" r="0.031035132706165314" fill="rgba(66, 80, 55, 0.46409913897514343)" />
  <circle cx="0.5503122210502625" cy="0.670623242855072" r="0.11087796837091446" fill="rgba(162, 104, 41, 0.09191536158323288)" />
  <circle cx="0.03226323053240776" cy="0.7172965407371521" r="0.07672948390245438" fill="rgba(113, 98, 83, 0.2439342886209488)" />
  <circle cx="0.8916369080543518" cy="0.22370436787605286" r="0.09943438321352005" fill="rgba(140, 147, 97, 0.5877828001976013)" />
  <circle cx="0.4798332750797272" cy="0.4059666693210602" r="0.02132350206375122" fill="rgba(71, 37, 21, 0.4028770625591278)" />
  <circle cx="0.03416210040450096" cy="0.9527497291564941" r="0.05690012872219086" fill="rgba(176, 108, 93, 0.10242488235235214)" />
  <circle cx="0.08740974217653275" cy="0.2603341042995453" r="0.15945012867450714" fill="rgba(190, 181, 111, 0.21213418245315552)" />
  <circle cx="0.05895479395985603" cy="0.6703084707260132" r="0.04271317273378372" fill="rgba(83, 193, 25, 0.01144394464790821)" />
  <circle cx="0.6340152621269226" cy="0.6641570925712585" r="0.04007507860660553" fill="rgba(105, 55, 14, 0.118497334420681)" />
  <circle cx="0.5199804902076721" cy="0.34302598237991333" r="0.14759449660778046" fill="rgba(136, 76, 14, 0.14214351773262024)" />
  <circle cx="0.07124443352222443" cy="0.248376727104187" r="0.1746419221162796" fill="rgba(183, 191, 115, 0.21791480481624603)" />
  <circle cx="0.05097596347332001" cy="0.18418657779693604" r="0.05916731059551239" fill="rgba(162, 178, 130, 0.17291474342346191)" />
  <circle cx="0.27956336736679077" cy="0.4320567548274994" r="0.023364301770925522" fill="rgba(123, 75, 51, 0.3498648703098297)" />
  <circle cx="0.6299793720245361" cy="0.8599851727485657" r="0.057467974722385406" fill="rgba(115, 84, 34, 0.16243334114551544)" />
  <circle cx="0.5602909326553345" cy="0.6614118218421936" r="0.06532367318868637" fill="rgba(215, 209, 105, 0.08632513135671616)" />
  <circle cx="0.791902482509613" cy="0.0" r="0.16540202498435974" fill="rgba(119, 130, 73, 0.18419699370861053)" />
  <circle cx="0.5075147747993469" cy="0.4395153224468231" r="0.061086952686309814" fill="rgba(107, 63, 25, 0.15296781063079834)" />
  <circle cx="0.4309888482093811" cy="0.34439629316329956" r="0.17152713239192963" fill="rgba(249, 170, 0, 0.05320589244365692)" />
  <circle cx="0.3680610656738281" cy="0.33444744348526" r="0.10383369028568268" fill="rgba(255, 219, 100, 0.1774030476808548)" />
  <circle cx="0.9655850529670715" cy="0.7461139559745789" r="0.0830153301358223" fill="rgba(80, 96, 69, 0.3292660117149353)" />
  <circle cx="0.25895923376083374" cy="0.6707895994186401" r="0.10543371737003326" fill="rgba(114, 43, 41, 0.15293239057064056)" />
  <circle cx="0.12133216857910156" cy="0.37740832567214966" r="0.08842608332633972" fill="rgba(174, 182, 107, 0.20321209728717804)" />
  <circle cx="0.010417412966489792" cy="0.09532179683446884" r="0.03446720167994499" fill="rgba(112, 106, 44, 0.13056625425815582)" />
  <circle cx="0.08162222057580948" cy="0.1382606029510498" r="0.08933506906032562" fill="rgba(115, 116, 62, 0.07068207859992981)" />
  <circle cx="0.5813398361206055" cy="0.2400200068950653" r="0.05750574544072151" fill="rgba(100, 60, 30, 0.16636869311332703)" />
  <circle cx="0.07934436202049255" cy="0.04855713993310928" r="0.3131934404373169" fill="rgba(143, 133, 72, 0.18189017474651337)" />
  <circle cx="0.22189097106456757" cy="0.15116585791110992" r="0.059140827506780624" fill="rgba(144, 151, 93, 0.35411179065704346)" />
  <circle cx="0.12578077614307404" cy="0.3812367022037506" r="0.0724429041147232" fill="rgba(184, 179, 107, 0.12252015620470047)" />
  <circle cx="0.6583759784698486" cy="0.6189330816268921" r="0.08802373707294464" fill="rgba(53, 22, 26, 0.19888368248939514)" />
  <circle cx="0.2793674170970917" cy="0.18628627061843872" r="0.07922840118408203" fill="rgba(175, 196, 130, 0.028808781877160072)" />
  <circle cx="0.3282054662704468" cy="0.4468538761138916" r="0.04772757366299629" fill="rgba(57, 0, 3, 0.17980997264385223)" />
  <circle cx="0.39334243535995483" cy="0.30627867579460144" r="0.11920002847909927" fill="rgba(208, 163, 70, 0.24583765864372253)" />
  <circle cx="0.4312673807144165" cy="0.25390195846557617" r="0.13189813494682312" fill="rgba(255, 213, 75, 0.06138831004500389)" />
  <circle cx="0.10052120685577393" cy="0.6209223866462708" r="0.10759579390287399" fill="rgba(67, 68, 53, 0.3032110631465912)" />
  <circle cx="0.5572292804718018" cy="0.6092486381530762" r="0.07918728142976761" fill="rgba(210, 171, 81, 0.1169898509979248)" />
  <circle cx="0.06143613159656525" cy="0.7041462659835815" r="0.10024817287921906" fill="rgba(73, 71, 47, 0.4288419187068939)" />
  <circle cx="0.001551922643557191" cy="0.8149166703224182" r="0.048645973205566406" fill="rgba(64, 81, 61, 0.1542137861251831)" />
</svg>
